<?xml version="1.0" encoding="UTF-8" standalone="no"?>
<!-- Creator: fig2dev Version 3.2.8b -->
<!-- CreationDate: 2021-12-02 04:02:12 -->
<!-- Magnification: 1.05 -->
<svg	xmlns="http://www.w3.org/2000/svg"
	xmlns:xlink="http://www.w3.org/1999/xlink"
	width="239pt" height="173pt"
	viewBox="210 203 3782 2737">
<g fill="none">
<!-- Text -->
<text xml:space="preserve" x="2700" y="2925" fill="#000000" font-family="Helvetica" font-style="normal" font-weight="normal" font-size="144" text-anchor="start">*</text>
<!-- Line -->
<defs>
<clipPath id="cp0">
	<path clip-rule="evenodd" d="M 210,203 H 3992 V 2940 H 210 z
		M 573,1465 535,1419 440,1529 449,1540z"/>
</clipPath>
</defs>
<polyline points=" 1035,1035 450,1530" clip-path="url(#cp0)"
	stroke="#000000" stroke-width="8px"/>
<!-- Forward arrow to point 450,1530 -->
<polygon points=" 535,1419 462,1520 573,1465 535,1419"
	stroke="#000000" stroke-width="8px" stroke-miterlimit="8" fill="#000000"/>
<!-- Line -->
<defs>
<clipPath id="cp1">
	<path clip-rule="evenodd" d="M 210,203 H 3992 V 2940 H 210 z
		M 1554,1115 1577,1060 1436,1026 1431,1039z"/>
</clipPath>
</defs>
<polyline points=" 3060,1710 1440,1035" clip-path="url(#cp1)"
	stroke="#000000" stroke-width="8px"/>
<!-- Forward arrow to point 1440,1035 -->
<polygon points=" 1577,1060 1455,1041 1554,1115 1577,1060"
	stroke="#000000" stroke-width="8px" stroke-miterlimit="8" fill="#000000"/>
<!-- Line -->
<defs>
<clipPath id="cp2">
	<path clip-rule="evenodd" d="M 210,203 H 3992 V 2940 H 210 z
		M 735,451 795,451 772,308 758,308z"/>
</clipPath>
</defs>
<polyline points=" 765,1035 765,315" clip-path="url(#cp2)"
	stroke="#000000" stroke-width="8px"/>
<!-- Forward arrow to point 765,315 -->
<polygon points=" 795,451 765,331 735,451 795,451"
	stroke="#000000" stroke-width="8px" stroke-miterlimit="8" fill="#000000"/>
<!-- Line -->
<rect x="3150" y="1575" width="225" height="225"
	stroke="#000000" stroke-width="15px"/>
<!-- Line -->
<rect x="3375" y="1575" width="225" height="225"
	stroke="#000000" stroke-width="15px"/>
<!-- Line -->
<defs>
<clipPath id="cp3">
	<path clip-rule="evenodd" d="M 210,203 H 3992 V 2940 H 210 z
		M 3315,2114 3255,2114 3278,2257 3292,2257z"/>
</clipPath>
</defs>
<polyline points=" 3285,1710 3285,2250" clip-path="url(#cp3)"
	stroke="#000000" stroke-width="8px"/>
<!-- Forward arrow to point 3285,2250 -->
<polygon points=" 3255,2114 3285,2234 3315,2114 3255,2114"
	stroke="#000000" stroke-width="8px" stroke-miterlimit="8" fill="#000000"/>
<!-- Line -->
<defs>
<clipPath id="cp4">
	<path clip-rule="evenodd" d="M 210,203 H 3992 V 2940 H 210 z
		M 3782,2117 3730,2147 3823,2259 3834,2252z"/>
</clipPath>
</defs>
<polyline points=" 3510,1710 3825,2250" clip-path="url(#cp4)"
	stroke="#000000" stroke-width="8px"/>
<!-- Forward arrow to point 3825,2250 -->
<polygon points=" 3730,2147 3817,2236 3782,2117 3730,2147"
	stroke="#000000" stroke-width="8px" stroke-miterlimit="8" fill="#000000"/>
<!-- Line -->
<rect x="2925" y="1575" width="225" height="225"
	stroke="#000000" stroke-width="15px"/>
<!-- Line -->
<rect x="2700" y="1575" width="225" height="225"
	stroke="#000000" stroke-width="15px"/>
<!-- Line -->
<defs>
<clipPath id="cp5">
	<path clip-rule="evenodd" d="M 210,203 H 3992 V 2940 H 210 z
		M 1181,2153 1131,2120 1071,2252 1082,2259z"/>
</clipPath>
</defs>
<polyline points=" 1440,1710 1080,2250" clip-path="url(#cp5)"
	stroke="#000000" stroke-width="8px"/>
<!-- Forward arrow to point 1080,2250 -->
<polygon points=" 1131,2120 1089,2237 1181,2153 1131,2120"
	stroke="#000000" stroke-width="8px" stroke-miterlimit="8" fill="#000000"/>
<!-- Line -->
<defs>
<clipPath id="cp6">
	<path clip-rule="evenodd" d="M 210,203 H 3992 V 2940 H 210 z
		M 1695,2114 1635,2114 1658,2257 1672,2257z"/>
</clipPath>
</defs>
<polyline points=" 1665,1710 1665,2250" clip-path="url(#cp6)"
	stroke="#000000" stroke-width="8px"/>
<!-- Forward arrow to point 1665,2250 -->
<polygon points=" 1635,2114 1665,2234 1695,2114 1635,2114"
	stroke="#000000" stroke-width="8px" stroke-miterlimit="8" fill="#000000"/>
<!-- Line -->
<rect x="1350" y="1575" width="225" height="225"
	stroke="#000000" stroke-width="15px"/>
<!-- Line -->
<rect x="1575" y="1575" width="225" height="225"
	stroke="#000000" stroke-width="15px"/>
<!-- Line -->
<rect x="1800" y="1575" width="225" height="225"
	stroke="#000000" stroke-width="15px"/>
<!-- Line -->
<defs>
<clipPath id="cp7">
	<path clip-rule="evenodd" d="M 210,203 H 3992 V 2940 H 210 z
		M 2126,2115 2072,2142 2157,2259 2169,2253z"/>
</clipPath>
</defs>
<polyline points=" 1890,1710 2160,2250" clip-path="url(#cp7)"
	stroke="#000000" stroke-width="8px"/>
<!-- Forward arrow to point 2160,2250 -->
<polygon points=" 2072,2142 2153,2236 2126,2115 2072,2142"
	stroke="#000000" stroke-width="8px" stroke-miterlimit="8" fill="#000000"/>
<!-- Line -->
<rect x="1125" y="1575" width="225" height="225"
	stroke="#000000" stroke-width="15px"/>
<!-- Line -->
<rect x="900" y="1575" width="225" height="225"
	stroke="#000000" stroke-width="15px"/>
<!-- Line -->
<rect x="1125" y="900" width="225" height="225"
	stroke="#000000" stroke-width="15px"/>
<!-- Line -->
<rect x="1350" y="900" width="225" height="225"
	stroke="#000000" stroke-width="15px"/>
<!-- Line -->
<rect x="450" y="900" width="225" height="225"
	stroke="#000000" stroke-width="15px"/>
<!-- Line -->
<rect x="675" y="225" width="225" height="225"
	stroke="#000000" stroke-width="15px"/>
<!-- Line -->
<rect x="450" y="225" width="225" height="225"
	stroke="#000000" stroke-width="15px"/>
<!-- Line -->
<defs>
<clipPath id="cp8">
	<path clip-rule="evenodd" d="M 210,203 H 3992 V 2940 H 210 z
		M 2715,2026 2775,2026 2752,1883 2738,1883z"/>
</clipPath>
</defs>
<polyline points=" 2745,2700 2745,1890" clip-path="url(#cp8)"
	stroke="#000000" stroke-width="8px" stroke-dasharray="30 30"/>
<!-- Forward arrow to point 2745,1890 -->
<polygon points=" 2775,2026 2745,1906 2715,2026 2775,2026"
	stroke="#000000" stroke-width="8px" stroke-miterlimit="8" fill="#000000"/>
<!-- Line -->
<defs>
<clipPath id="cp9">
	<path clip-rule="evenodd" d="M 210,203 H 3992 V 2940 H 210 z
		M 488,634 547,624 501,487 487,489z"/>
</clipPath>
</defs>
<polyline points=" 585,1035 495,495" clip-path="url(#cp9)"
	stroke="#000000" stroke-width="8px" stroke-dasharray="30 30"/>
<!-- Forward arrow to point 495,495 -->
<polygon points=" 547,624 498,511 488,634 547,624"
	stroke="#000000" stroke-width="8px" stroke-miterlimit="8" fill="#000000"/>
<!-- Line -->
<rect x="675" y="900" width="225" height="225"
	stroke="#000000" stroke-width="15px"/>
<!-- Line -->
<rect x="900" y="900" width="225" height="225"
	stroke="#000000" stroke-width="15px"/>
<!-- Line -->
<defs>
<clipPath id="cp10">
	<path clip-rule="evenodd" d="M 210,203 H 3992 V 2940 H 210 z
		M 570,1288 613,1245 495,1160 485,1170z"/>
</clipPath>
</defs>
<polyline points=" 1035,1710 495,1170" clip-path="url(#cp10)"
	stroke="#000000" stroke-width="8px" stroke-dasharray="30 30"/>
<!-- Forward arrow to point 495,1170 -->
<polygon points=" 613,1245 506,1181 570,1288 613,1245"
	stroke="#000000" stroke-width="8px" stroke-miterlimit="8" fill="#000000"/>
<!-- Line -->
<defs>
<clipPath id="cp11">
	<path clip-rule="evenodd" d="M 210,203 H 3992 V 2940 H 210 z
		M 570,1288 613,1245 495,1160 485,1170z"/>
</clipPath>
</defs>
<polyline points=" 2790,1710 2789,1710 2786,1711 2780,1713 2771,1715 2758,1719
 2740,1724 2718,1730 2692,1737 2660,1746 2624,1756 2583,1767 2539,1779 2491,1792
 2439,1806 2386,1820 2330,1835 2273,1850 2216,1865 2158,1881 2101,1895 2046,1910
 1991,1924 1938,1937 1888,1949 1839,1961 1793,1971 1749,1981 1708,1990 1670,1998
 1634,2005 1600,2011 1569,2016 1539,2020 1511,2023 1485,2025 1445,2027 1407,2027
 1371,2024 1336,2020 1302,2013 1268,2004 1235,1993 1202,1980 1169,1966 1136,1951
 1105,1936 1075,1920 1047,1905 1022,1891 1000,1878 982,1867 967,1859 945,1845
" clip-path="url(#cp11)"
	stroke="#000000" stroke-width="8px" stroke-linejoin="bevel" stroke-dasharray="40 40"/>
<!-- Text -->
<text xml:space="preserve" x="225" y="1755" fill="#000000" font-family="Helvetica" font-style="normal" font-weight="normal" font-size="144" text-anchor="start">mul</text>
<!-- Text -->
<text xml:space="preserve" x="3870" y="2475" fill="#000000" font-family="Helvetica" font-style="normal" font-weight="normal" font-size="144" text-anchor="start">1</text>
<!-- Text -->
<text xml:space="preserve" x="3150" y="2475" fill="#000000" font-family="Helvetica" font-style="normal" font-weight="normal" font-size="144" text-anchor="start">inc</text>
<!-- Text -->
<text xml:space="preserve" x="945" y="2430" fill="#000000" font-family="Helvetica" font-style="normal" font-weight="normal" font-size="144" text-anchor="start">+</text>
<!-- Text -->
<text xml:space="preserve" x="2160" y="2475" fill="#000000" font-family="Helvetica" font-style="normal" font-weight="normal" font-size="144" text-anchor="start">2</text>
<!-- Text -->
<text xml:space="preserve" x="1620" y="2475" fill="#000000" font-family="Helvetica" font-style="normal" font-weight="normal" font-size="144" text-anchor="start">1</text>
<!-- Line -->
<defs>
<clipPath id="cp12">
	<path clip-rule="evenodd" d="M 210,203 H 3992 V 2940 H 210 z
		M 1185,1171 1245,1171 1222,1028 1208,1028z"/>
</clipPath>
</defs>
<polyline points=" 1215,1710 1215,1035" clip-path="url(#cp12)"
	stroke="#000000" stroke-width="8px"/>
<!-- Forward arrow to point 1215,1035 -->
<polygon points=" 1245,1171 1215,1051 1185,1171 1245,1171"
	stroke="#000000" stroke-width="8px" stroke-miterlimit="8" fill="#000000"/>
</g>
</svg>
