<?xml version="1.0" encoding="UTF-8" standalone="no"?>
<!-- Creator: fig2dev Version 3.2.8b -->
<!-- CreationDate: 2021-12-02 04:01:52 -->
<!-- Magnification: 1.05 -->
<svg	xmlns="http://www.w3.org/2000/svg"
	xmlns:xlink="http://www.w3.org/1999/xlink"
	width="213pt" height="144pt"
	viewBox="210 210 3377 2280">
<g fill="none">
<!-- Text -->
<text xml:space="preserve" x="2430" y="1755" fill="#000000" font-family="Helvetica" font-style="normal" font-weight="normal" font-size="144" text-anchor="start">inc</text>
<!-- Line -->
<defs>
<clipPath id="cp0">
	<path clip-rule="evenodd" d="M 210,210 H 3587 V 2490 H 210 z
		M 1683,2089 1635,2125 1740,2225 1750,2217z"/>
</clipPath>
</defs>
<polyline points=" 1471,1856 1741,2216" clip-path="url(#cp0)"
	stroke="#000000" stroke-width="8px"/>
<!-- Forward arrow to point 1741,2216 -->
<polygon points=" 1635,2125 1731,2203 1683,2089 1635,2125"
	stroke="#000000" stroke-width="8px" stroke-miterlimit="8" fill="#000000"/>
<!-- Line -->
<defs>
<clipPath id="cp1">
	<path clip-rule="evenodd" d="M 210,210 H 3587 V 2490 H 210 z
		M 1035,776 1008,722 891,807 897,819z"/>
</clipPath>
</defs>
<polyline points=" 1620,450 900,810" clip-path="url(#cp1)"
	stroke="#000000" stroke-width="8px"/>
<!-- Forward arrow to point 900,810 -->
<polygon points=" 1008,722 914,803 1035,776 1008,722"
	stroke="#000000" stroke-width="8px" stroke-miterlimit="8" fill="#000000"/>
<!-- Line -->
<defs>
<clipPath id="cp2">
	<path clip-rule="evenodd" d="M 210,210 H 3587 V 2490 H 210 z
		M 2720,731 2697,787 2839,819 2844,806z"/>
</clipPath>
</defs>
<polyline points=" 1966,461 2835,810" clip-path="url(#cp2)"
	stroke="#000000" stroke-width="8px"/>
<!-- Forward arrow to point 2835,810 -->
<polygon points=" 2697,787 2820,804 2720,731 2697,787"
	stroke="#000000" stroke-width="8px" stroke-miterlimit="8" fill="#000000"/>
<!-- Line -->
<defs>
<clipPath id="cp3">
	<path clip-rule="evenodd" d="M 210,210 H 3587 V 2490 H 210 z
		M 511,1394 463,1358 396,1486 406,1494z"/>
</clipPath>
</defs>
<polyline points=" 675,1125 405,1485" clip-path="url(#cp3)"
	stroke="#000000" stroke-width="8px"/>
<!-- Forward arrow to point 405,1485 -->
<polygon points=" 463,1358 415,1472 511,1394 463,1358"
	stroke="#000000" stroke-width="8px" stroke-miterlimit="8" fill="#000000"/>
<!-- Line -->
<defs>
<clipPath id="cp4">
	<path clip-rule="evenodd" d="M 210,210 H 3587 V 2490 H 210 z
		M 1143,1369 1095,1405 1200,1505 1210,1497z"/>
</clipPath>
</defs>
<polyline points=" 931,1136 1201,1496" clip-path="url(#cp4)"
	stroke="#000000" stroke-width="8px"/>
<!-- Forward arrow to point 1201,1496 -->
<polygon points=" 1095,1405 1191,1483 1143,1369 1095,1405"
	stroke="#000000" stroke-width="8px" stroke-miterlimit="8" fill="#000000"/>
<!-- Line -->
<defs>
<clipPath id="cp5">
	<path clip-rule="evenodd" d="M 210,210 H 3587 V 2490 H 210 z
		M 2671,1394 2623,1358 2556,1486 2566,1494z"/>
</clipPath>
</defs>
<polyline points=" 2835,1125 2565,1485" clip-path="url(#cp5)"
	stroke="#000000" stroke-width="8px"/>
<!-- Forward arrow to point 2565,1485 -->
<polygon points=" 2623,1358 2575,1472 2671,1394 2623,1358"
	stroke="#000000" stroke-width="8px" stroke-miterlimit="8" fill="#000000"/>
<!-- Line -->
<defs>
<clipPath id="cp6">
	<path clip-rule="evenodd" d="M 210,210 H 3587 V 2490 H 210 z
		M 3303,1369 3255,1405 3360,1505 3370,1497z"/>
</clipPath>
</defs>
<polyline points=" 3091,1136 3361,1496" clip-path="url(#cp6)"
	stroke="#000000" stroke-width="8px"/>
<!-- Forward arrow to point 3361,1496 -->
<polygon points=" 3255,1405 3351,1483 3303,1369 3255,1405"
	stroke="#000000" stroke-width="8px" stroke-miterlimit="8" fill="#000000"/>
<!-- Text -->
<text xml:space="preserve" x="675" y="1035" fill="#000000" font-family="Helvetica" font-style="normal" font-weight="normal" font-size="144" text-anchor="start">@</text>
<!-- Text -->
<text xml:space="preserve" x="855" y="2475" fill="#000000" font-family="Helvetica" font-style="normal" font-weight="normal" font-size="144" text-anchor="start">1</text>
<!-- Text -->
<text xml:space="preserve" x="1755" y="2475" fill="#000000" font-family="Helvetica" font-style="normal" font-weight="normal" font-size="144" text-anchor="start">2</text>
<!-- Text -->
<text xml:space="preserve" x="1710" y="405" fill="#000000" font-family="Helvetica" font-style="normal" font-weight="normal" font-size="144" text-anchor="start">@</text>
<!-- Text -->
<text xml:space="preserve" x="2835" y="1035" fill="#000000" font-family="Helvetica" font-style="normal" font-weight="normal" font-size="144" text-anchor="start">@</text>
<!-- Text -->
<text xml:space="preserve" x="1305" y="1755" fill="#000000" font-family="Helvetica" font-style="normal" font-weight="normal" font-size="144" text-anchor="start">+</text>
<!-- Text -->
<text xml:space="preserve" x="3465" y="1755" fill="#000000" font-family="Helvetica" font-style="normal" font-weight="normal" font-size="144" text-anchor="start">1</text>
<!-- Text -->
<text xml:space="preserve" x="225" y="1755" fill="#000000" font-family="Helvetica" font-style="normal" font-weight="normal" font-size="144" text-anchor="start">mul</text>
<!-- Line -->
<defs>
<clipPath id="cp7">
	<path clip-rule="evenodd" d="M 210,210 H 3587 V 2490 H 210 z
		M 1065,2125 1017,2089 950,2217 960,2225z"/>
</clipPath>
</defs>
<polyline points=" 1229,1856 959,2216" clip-path="url(#cp7)"
	stroke="#000000" stroke-width="8px"/>
<!-- Forward arrow to point 959,2216 -->
<polygon points=" 1017,2089 969,2203 1065,2125 1017,2089"
	stroke="#000000" stroke-width="8px" stroke-miterlimit="8" fill="#000000"/>
</g>
</svg>
